<!-- Generated by IcoMoon.io -->
<svg version="1.1" xmlns="http://www.w3.org/2000/svg" width="32" height="32" viewBox="0 0 32 32">
<title>dashboard</title>
<path fill="#1a78ac" d="M28 12.667h-24v-6.667c0-1.105 0.895-2 2-2h20c1.105 0 2 0.895 2 2z"></path>
<path fill="#dbecfa" d="M4 10.667h24v15.333c0 1.105-0.895 2-2 2h-20c-1.105 0-2-0.895-2-2z"></path>
<path fill="#8bc34a" d="M8.667 7.333c0 0.736-0.597 1.333-1.333 1.333s-1.333-0.597-1.333-1.333c0-0.736 0.597-1.333 1.333-1.333s1.333 0.597 1.333 1.333z"></path>
<path fill="#ffeb3b" d="M12.667 7.333c0 0.736-0.597 1.333-1.333 1.333s-1.333-0.597-1.333-1.333c0-0.736 0.597-1.333 1.333-1.333s1.333 0.597 1.333 1.333z"></path>
<path fill="#fafafa" d="M26 8c0 0.369-0.298 0.667-0.667 0.667h-10c-0.369 0-0.667-0.298-0.667-0.667v-1.333c0-0.369 0.298-0.667 0.667-0.667h10c0.369 0 0.667 0.298 0.667 0.667z"></path>
<path fill="#90caf9" d="M6 12.667h11.333v7.333h-11.333v-7.333z"></path>
<path fill="#90caf9" d="M6 22h11.333v4h-11.333v-4z"></path>
<path fill="#90caf9" d="M19.333 12.667h6.667v13.333h-6.667v-13.333z"></path>
</svg>
